<mxfile host="65bd71144e">
    <diagram id="7NsFs8UaC-70BnJKvzv4" name="ページ1">
        <mxGraphModel dx="680" dy="670" grid="1" gridSize="10" guides="1" tooltips="1" connect="1" arrows="1" fold="1" page="1" pageScale="1" pageWidth="827" pageHeight="1169" background="#ffffff" math="0" shadow="0">
            <root>
                <mxCell id="0"/>
                <mxCell id="1" parent="0"/>
                <mxCell id="5" value="User" style="shape=umlActor;verticalLabelPosition=bottom;verticalAlign=top;html=1;outlineConnect=0;strokeColor=#000000;fontColor=#000000;" vertex="1" parent="1">
                    <mxGeometry x="140" y="130" width="30" height="60" as="geometry"/>
                </mxCell>
                <mxCell id="6" value="chat app" style="rounded=0;whiteSpace=wrap;html=1;strokeColor=#666666;fontColor=#333333;fillColor=#f5f5f5;" vertex="1" parent="1">
                    <mxGeometry x="294" y="130" width="120" height="60" as="geometry"/>
                </mxCell>
                <mxCell id="7" value="DB" style="shape=cylinder3;whiteSpace=wrap;html=1;boundedLbl=1;backgroundOutline=1;size=15;labelBackgroundColor=#FFFFFF;strokeColor=#666666;fontColor=#333333;fillColor=#f5f5f5;" vertex="1" parent="1">
                    <mxGeometry x="520" y="120" width="96.5" height="80" as="geometry"/>
                </mxCell>
                <mxCell id="10" value="chat gpt" style="rounded=0;whiteSpace=wrap;html=1;labelBackgroundColor=#FFFFFF;strokeColor=#666666;fontColor=#333333;fillColor=#f5f5f5;" vertex="1" parent="1">
                    <mxGeometry x="294" y="290" width="120" height="60" as="geometry"/>
                </mxCell>
                <mxCell id="13" value="" style="endArrow=classic;html=1;fontColor=#000000;strokeColor=#36393d;strokeWidth=2;fillColor=#eeeeee;" edge="1" parent="1">
                    <mxGeometry width="50" height="50" relative="1" as="geometry">
                        <mxPoint x="190" y="149" as="sourcePoint"/>
                        <mxPoint x="280" y="149" as="targetPoint"/>
                    </mxGeometry>
                </mxCell>
                <mxCell id="14" value="" style="endArrow=classic;html=1;fontColor=#000000;strokeColor=#36393d;strokeWidth=2;fillColor=#eeeeee;" edge="1" parent="1">
                    <mxGeometry width="50" height="50" relative="1" as="geometry">
                        <mxPoint x="280" y="170" as="sourcePoint"/>
                        <mxPoint x="190" y="170" as="targetPoint"/>
                    </mxGeometry>
                </mxCell>
                <mxCell id="15" value="" style="endArrow=classic;html=1;fontColor=#000000;strokeColor=#36393d;strokeWidth=2;fillColor=#eeeeee;" edge="1" parent="1">
                    <mxGeometry width="50" height="50" relative="1" as="geometry">
                        <mxPoint x="340" y="210" as="sourcePoint"/>
                        <mxPoint x="340" y="280" as="targetPoint"/>
                    </mxGeometry>
                </mxCell>
                <mxCell id="16" value="" style="endArrow=classic;html=1;fontColor=#000000;strokeColor=#36393d;strokeWidth=2;fillColor=#eeeeee;" edge="1" parent="1">
                    <mxGeometry width="50" height="50" relative="1" as="geometry">
                        <mxPoint x="361" y="280" as="sourcePoint"/>
                        <mxPoint x="361" y="210" as="targetPoint"/>
                    </mxGeometry>
                </mxCell>
                <mxCell id="17" value="" style="endArrow=classic;html=1;fontColor=#000000;strokeColor=#36393d;strokeWidth=2;fillColor=#eeeeee;" edge="1" parent="1">
                    <mxGeometry width="50" height="50" relative="1" as="geometry">
                        <mxPoint x="420" y="149" as="sourcePoint"/>
                        <mxPoint x="510" y="149" as="targetPoint"/>
                    </mxGeometry>
                </mxCell>
                <mxCell id="18" value="" style="endArrow=classic;html=1;fontColor=#000000;strokeColor=#36393d;strokeWidth=2;fillColor=#eeeeee;" edge="1" parent="1">
                    <mxGeometry width="50" height="50" relative="1" as="geometry">
                        <mxPoint x="510" y="170" as="sourcePoint"/>
                        <mxPoint x="420" y="170" as="targetPoint"/>
                    </mxGeometry>
                </mxCell>
            </root>
        </mxGraphModel>
    </diagram>
</mxfile>